<svg xmlns="http://www.w3.org/2000/svg" width="1200" height="800" viewBox="0 0 1200 800">
  <rect x="20" y="20" width="1160" height="760" fill="#ffffff" stroke="#333"/>
  <text x="40" y="50" font-size="24" fill="#333">SBA – High-level System Overview</text>
  <!-- CLIENT -->
  <rect x="60" y="100" width="300" height="120" fill="#e6f7ff" stroke="#3399cc"/>
  <text x="80" y="130" font-size="18" fill="#333">CLIENT</text>
  <text x="80" y="155" font-size="14" fill="#333">AG-UI Client (Web/Mobile)</text>
  <!-- PRESENTATION -->
  <rect x="420" y="100" width="300" height="120" fill="#fff7e6" stroke="#ff9900"/>
  <text x="440" y="130" font-size="18" fill="#333">PRESENTATION</text>
  <text x="440" y="155" font-size="14" fill="#333">Next.js Frontend</text>
  <!-- AUTH -->
  <rect x="780" y="100" width="300" height="120" fill="#f6ffed" stroke="#52c41a"/>
  <text x="800" y="130" font-size="18" fill="#333">AUTH</text>
  <text x="800" y="155" font-size="14" fill="#333">OIDC/SSO Provider</text>
  <!-- AGENT -->
  <rect x="60" y="280" width="360" height="200" fill="#fff0f6" stroke="#eb2f96"/>
  <text x="80" y="310" font-size="18" fill="#333">AGENT</text>
  <text x="80" y="335" font-size="14" fill="#333">Orchestrator (Node/Nest)</text>
  <text x="80" y="355" font-size="14" fill="#333">Tool Registry + Model Adapter</text>
  <!-- CMS -->
  <rect x="460" y="280" width="300" height="200" fill="#f0f5ff" stroke="#2f54eb"/>
  <text x="480" y="310" font-size="18" fill="#333">CMS</text>
  <text x="480" y="335" font-size="14" fill="#333">BaseHub + Blob (S3/R2)</text>
  <!-- DATA/DB -->
  <rect x="800" y="280" width="280" height="200" fill="#fffbe6" stroke="#fadb14"/>
  <text x="820" y="310" font-size="18" fill="#333">DATA</text>
  <text x="820" y="335" font-size="14" fill="#333">Postgres + Redis</text>
  <!-- INTEGRATIONS -->
  <rect x="60" y="520" width="460" height="200" fill="#e6fffb" stroke="#13c2c2"/>
  <text x="80" y="550" font-size="18" fill="#333">INTEGRATIONS</text>
  <text x="80" y="575" font-size="14" fill="#333">CRM/ERP/Payments/Task Systems</text>
  <!-- Observability -->
  <rect x="560" y="520" width="520" height="200" fill="#fafafa" stroke="#8c8c8c"/>
  <text x="580" y="550" font-size="18" fill="#333">Observability</text>
  <text x="580" y="575" font-size="14" fill="#333">OpenTelemetry, Prometheus, Grafana, Sentry</text>
  <!-- Arrows -->
  <line x1="210" y1="220" x2="420" y2="220" stroke="#333" marker-end="url(#arrow)"/>
  <line x1="570" y1="220" x2="780" y2="220" stroke="#333" marker-end="url(#arrow)"/>
  <line x1="210" y1="280" x2="210" y2="520" stroke="#333" marker-end="url(#arrow)"/>
  <line x1="360" y1="380" x2="460" y2="380" stroke="#333" marker-end="url(#arrow)"/>
  <line x1="760" y1="380" x2="800" y2="380" stroke="#333" marker-end="url(#arrow)"/>
  <defs>
    <marker id="arrow" markerWidth="10" markerHeight="10" refX="6" refY="3" orient="auto" markerUnits="strokeWidth">
      <path d="M0,0 L0,6 L6,3 z" fill="#333" />
    </marker>
  </defs>
</svg>

